<mxfile host="Electron" modified="2023-08-09T09:20:22.041Z" agent="Mozilla/5.0 (Windows NT 10.0; Win64; x64) AppleWebKit/537.36 (KHTML, like Gecko) draw.io/21.3.7 Chrome/112.0.5615.204 Electron/24.5.0 Safari/537.36" etag="m840I0bzP4dWvDySi9Xt" version="21.3.7" type="device">
  <diagram name="Page-1" id="ZWSDeJOEaIr2L8Me2n5w">
    <mxGraphModel dx="2363" dy="2480" grid="1" gridSize="10" guides="1" tooltips="1" connect="1" arrows="1" fold="1" page="1" pageScale="1" pageWidth="850" pageHeight="1100" math="0" shadow="0">
      <root>
        <mxCell id="0" />
        <mxCell id="1" parent="0" />
        <mxCell id="EveCIlQHcC4GdwJnfHoP-5" value="" style="rounded=0;whiteSpace=wrap;html=1;fillColor=#f9f7ed;strokeColor=#36393d;" parent="1" vertex="1">
          <mxGeometry x="149.57" y="-1047.5" width="905.44" height="57.5" as="geometry" />
        </mxCell>
        <mxCell id="oZ6fTYHKEGw5SNDz8hmi-39" style="rounded=0;orthogonalLoop=1;jettySize=auto;html=1;exitX=1;exitY=0;exitDx=0;exitDy=0;entryX=0.005;entryY=0.929;entryDx=0;entryDy=0;entryPerimeter=0;" parent="1" source="cQSAukFgM9H1RLstrKh2-131" target="cQSAukFgM9H1RLstrKh2-152" edge="1">
          <mxGeometry relative="1" as="geometry" />
        </mxCell>
        <mxCell id="oZ6fTYHKEGw5SNDz8hmi-38" style="edgeStyle=orthogonalEdgeStyle;rounded=0;orthogonalLoop=1;jettySize=auto;html=1;exitX=1;exitY=0.5;exitDx=0;exitDy=0;entryX=0.565;entryY=0.856;entryDx=0;entryDy=0;entryPerimeter=0;dashed=1;startArrow=classic;startFill=1;endArrow=none;endFill=0;" parent="1" source="cQSAukFgM9H1RLstrKh2-137" target="oZ6fTYHKEGw5SNDz8hmi-31" edge="1">
          <mxGeometry relative="1" as="geometry" />
        </mxCell>
        <mxCell id="oZ6fTYHKEGw5SNDz8hmi-35" style="rounded=0;orthogonalLoop=1;jettySize=auto;html=1;exitX=1;exitY=0.5;exitDx=0;exitDy=0;entryX=0;entryY=0.75;entryDx=0;entryDy=0;dashed=1;strokeWidth=3;strokeColor=#CDEB8B;" parent="1" source="oZ6fTYHKEGw5SNDz8hmi-9" target="oZ6fTYHKEGw5SNDz8hmi-31" edge="1">
          <mxGeometry relative="1" as="geometry" />
        </mxCell>
        <mxCell id="cQSAukFgM9H1RLstrKh2-125" style="rounded=0;orthogonalLoop=1;jettySize=auto;html=1;exitX=1;exitY=0.3333333333333333;exitDx=0;exitDy=0;exitPerimeter=0;entryX=0.265;entryY=0.958;entryDx=0;entryDy=0;entryPerimeter=0;" parent="1" source="cQSAukFgM9H1RLstrKh2-126" target="cQSAukFgM9H1RLstrKh2-127" edge="1">
          <mxGeometry relative="1" as="geometry">
            <mxPoint x="875.0250000000001" y="-904.8000000000002" as="targetPoint" />
          </mxGeometry>
        </mxCell>
        <mxCell id="cQSAukFgM9H1RLstrKh2-192" style="rounded=0;orthogonalLoop=1;jettySize=auto;html=1;exitX=1;exitY=0.3333333333333333;exitDx=0;exitDy=0;exitPerimeter=0;entryX=0.988;entryY=0.683;entryDx=0;entryDy=0;entryPerimeter=0;" parent="1" source="cQSAukFgM9H1RLstrKh2-126" target="cQSAukFgM9H1RLstrKh2-129" edge="1">
          <mxGeometry relative="1" as="geometry" />
        </mxCell>
        <mxCell id="cQSAukFgM9H1RLstrKh2-193" style="rounded=0;orthogonalLoop=1;jettySize=auto;html=1;exitX=1;exitY=0.3333333333333333;exitDx=0;exitDy=0;exitPerimeter=0;entryX=0;entryY=0.5;entryDx=0;entryDy=0;" parent="1" source="cQSAukFgM9H1RLstrKh2-126" target="cQSAukFgM9H1RLstrKh2-128" edge="1">
          <mxGeometry relative="1" as="geometry" />
        </mxCell>
        <mxCell id="ifd4lvwsygBwF9mz3tTz-15" style="rounded=0;orthogonalLoop=1;jettySize=auto;html=1;exitX=1;exitY=0.3333333333333333;exitDx=0;exitDy=0;exitPerimeter=0;entryX=0.776;entryY=0.953;entryDx=0;entryDy=0;entryPerimeter=0;" parent="1" source="cQSAukFgM9H1RLstrKh2-126" target="ifd4lvwsygBwF9mz3tTz-10" edge="1">
          <mxGeometry relative="1" as="geometry" />
        </mxCell>
        <mxCell id="-xwD7tMcW1czYIhG800J-12" style="rounded=0;orthogonalLoop=1;jettySize=auto;html=1;exitX=1;exitY=0.3333333333333333;exitDx=0;exitDy=0;exitPerimeter=0;entryX=0;entryY=0.5;entryDx=0;entryDy=0;" parent="1" source="cQSAukFgM9H1RLstrKh2-126" target="-xwD7tMcW1czYIhG800J-2" edge="1">
          <mxGeometry relative="1" as="geometry" />
        </mxCell>
        <mxCell id="oZ6fTYHKEGw5SNDz8hmi-12" style="rounded=0;orthogonalLoop=1;jettySize=auto;html=1;exitX=1;exitY=0.3333333333333333;exitDx=0;exitDy=0;exitPerimeter=0;entryX=0.921;entryY=0.797;entryDx=0;entryDy=0;entryPerimeter=0;" parent="1" source="cQSAukFgM9H1RLstrKh2-126" target="oZ6fTYHKEGw5SNDz8hmi-2" edge="1">
          <mxGeometry relative="1" as="geometry" />
        </mxCell>
        <mxCell id="cQSAukFgM9H1RLstrKh2-126" value="&lt;font style=&quot;font-size: 17px;&quot;&gt;Actor&lt;/font&gt;" style="shape=umlActor;verticalLabelPosition=bottom;verticalAlign=top;html=1;outlineConnect=0;strokeWidth=3;" parent="1" vertex="1">
          <mxGeometry x="837.69" y="-283.75" width="50" height="100" as="geometry" />
        </mxCell>
        <mxCell id="cQSAukFgM9H1RLstrKh2-183" style="edgeStyle=orthogonalEdgeStyle;rounded=0;orthogonalLoop=1;jettySize=auto;html=1;exitX=0.796;exitY=0.101;exitDx=0;exitDy=0;entryX=0.5;entryY=1;entryDx=0;entryDy=0;exitPerimeter=0;" parent="1" source="cQSAukFgM9H1RLstrKh2-127" target="cQSAukFgM9H1RLstrKh2-148" edge="1">
          <mxGeometry relative="1" as="geometry" />
        </mxCell>
        <mxCell id="cQSAukFgM9H1RLstrKh2-184" style="edgeStyle=orthogonalEdgeStyle;rounded=0;orthogonalLoop=1;jettySize=auto;html=1;exitX=0.309;exitY=0.032;exitDx=0;exitDy=0;entryX=0.179;entryY=1;entryDx=0;entryDy=0;entryPerimeter=0;exitPerimeter=0;" parent="1" source="cQSAukFgM9H1RLstrKh2-127" target="cQSAukFgM9H1RLstrKh2-132" edge="1">
          <mxGeometry relative="1" as="geometry">
            <mxPoint x="967.5300000000005" y="-587.5699999999997" as="targetPoint" />
          </mxGeometry>
        </mxCell>
        <mxCell id="cQSAukFgM9H1RLstrKh2-127" value="&lt;b style=&quot;&quot;&gt;&lt;font style=&quot;font-size: 16px;&quot;&gt;Club&lt;/font&gt;&lt;/b&gt;&lt;br&gt;&lt;font style=&quot;font-size: 13px;&quot;&gt;&lt;span style=&quot;font-size: 13px;&quot;&gt;Index.cshtml, DetailClub.cshtml,&lt;/span&gt;&lt;br&gt;&lt;font style=&quot;font-size: 13px;&quot; color=&quot;#006600&quot;&gt;Create.cshtml&lt;/font&gt;&lt;span style=&quot;font-size: 13px;&quot;&gt;, &lt;/span&gt;&lt;font style=&quot;font-size: 13px;&quot; color=&quot;#006600&quot;&gt;Edit&lt;/font&gt;&lt;/font&gt;&lt;font style=&quot;font-size: 13px;&quot; color=&quot;#006600&quot;&gt;.cshtml&lt;/font&gt;, &lt;font style=&quot;font-size: 13px;&quot;&gt;Delete.cshtml&lt;/font&gt;" style="ellipse;whiteSpace=wrap;html=1;fillColor=#b0e3e6;strokeColor=#0e8088;verticalAlign=top;" parent="1" vertex="1">
          <mxGeometry x="887.69" y="-480" width="260" height="82.5" as="geometry" />
        </mxCell>
        <mxCell id="cQSAukFgM9H1RLstrKh2-187" style="edgeStyle=orthogonalEdgeStyle;rounded=0;orthogonalLoop=1;jettySize=auto;html=1;exitX=0.758;exitY=0.072;exitDx=0;exitDy=0;entryX=0.608;entryY=1.004;entryDx=0;entryDy=0;entryPerimeter=0;exitPerimeter=0;" parent="1" source="cQSAukFgM9H1RLstrKh2-128" target="cQSAukFgM9H1RLstrKh2-149" edge="1">
          <mxGeometry relative="1" as="geometry" />
        </mxCell>
        <mxCell id="cQSAukFgM9H1RLstrKh2-189" style="edgeStyle=orthogonalEdgeStyle;rounded=0;orthogonalLoop=1;jettySize=auto;html=1;exitX=0.259;exitY=0.067;exitDx=0;exitDy=0;entryX=0.133;entryY=1.001;entryDx=0;entryDy=0;entryPerimeter=0;exitPerimeter=0;" parent="1" source="cQSAukFgM9H1RLstrKh2-128" target="cQSAukFgM9H1RLstrKh2-133" edge="1">
          <mxGeometry relative="1" as="geometry">
            <mxPoint x="1347.3" y="-367.22" as="targetPoint" />
          </mxGeometry>
        </mxCell>
        <mxCell id="cQSAukFgM9H1RLstrKh2-128" value="&lt;b style=&quot;&quot;&gt;&lt;font style=&quot;font-size: 16px;&quot;&gt;Race&lt;/font&gt;&lt;/b&gt;&lt;br&gt;&lt;font style=&quot;font-size: 13px;&quot;&gt;&lt;font style=&quot;font-size: 13px;&quot;&gt;Index.cshtml, DetailRace.cshtml,&lt;br&gt;&lt;font style=&quot;font-size: 13px;&quot; color=&quot;#006600&quot;&gt;Create.cshtml&lt;/font&gt;&lt;/font&gt;&lt;font style=&quot;border-color: var(--border-color); font-size: 13px;&quot;&gt;, &lt;font style=&quot;font-size: 13px;&quot; color=&quot;#006600&quot;&gt;Edit&lt;/font&gt;&lt;/font&gt;&lt;font style=&quot;font-size: 13px;&quot; color=&quot;#006600&quot;&gt;.cshtml&lt;/font&gt;, Delete.cshtml&lt;/font&gt;" style="ellipse;whiteSpace=wrap;html=1;fillColor=#b0e3e6;strokeColor=#0e8088;verticalAlign=top;" parent="1" vertex="1">
          <mxGeometry x="1274.57" y="-260" width="280.81" height="80" as="geometry" />
        </mxCell>
        <mxCell id="oZ6fTYHKEGw5SNDz8hmi-23" style="edgeStyle=orthogonalEdgeStyle;rounded=0;orthogonalLoop=1;jettySize=auto;html=1;exitX=0.817;exitY=0.11;exitDx=0;exitDy=0;entryX=0.637;entryY=1.01;entryDx=0;entryDy=0;entryPerimeter=0;exitPerimeter=0;" parent="1" source="cQSAukFgM9H1RLstrKh2-129" target="oZ6fTYHKEGw5SNDz8hmi-18" edge="1">
          <mxGeometry relative="1" as="geometry" />
        </mxCell>
        <mxCell id="oZ6fTYHKEGw5SNDz8hmi-24" style="edgeStyle=orthogonalEdgeStyle;rounded=0;orthogonalLoop=1;jettySize=auto;html=1;exitX=0;exitY=0;exitDx=0;exitDy=0;entryX=0.125;entryY=0.987;entryDx=0;entryDy=0;entryPerimeter=0;" parent="1" source="cQSAukFgM9H1RLstrKh2-129" target="cQSAukFgM9H1RLstrKh2-131" edge="1">
          <mxGeometry relative="1" as="geometry" />
        </mxCell>
        <mxCell id="cQSAukFgM9H1RLstrKh2-129" value="&lt;b style=&quot;&quot;&gt;&lt;font style=&quot;font-size: 16px;&quot;&gt;Home&lt;/font&gt;&lt;/b&gt;&lt;br&gt;&lt;font style=&quot;font-size: 13px;&quot;&gt;&lt;font color=&quot;#006600&quot;&gt;Index.cshtml&lt;/font&gt;, Privacy.cshtml&lt;br&gt;&lt;/font&gt;" style="ellipse;whiteSpace=wrap;html=1;fillColor=#b0e3e6;strokeColor=#0e8088;verticalAlign=top;" parent="1" vertex="1">
          <mxGeometry x="134.56999999999994" y="-442.5" width="200" height="60" as="geometry" />
        </mxCell>
        <mxCell id="cQSAukFgM9H1RLstrKh2-201" style="rounded=0;orthogonalLoop=1;jettySize=auto;html=1;exitX=0.489;exitY=-0.013;exitDx=0;exitDy=0;shape=link;exitPerimeter=0;" parent="1" source="cQSAukFgM9H1RLstrKh2-130" edge="1">
          <mxGeometry relative="1" as="geometry">
            <mxPoint x="1127.07" y="-145" as="targetPoint" />
          </mxGeometry>
        </mxCell>
        <mxCell id="cQSAukFgM9H1RLstrKh2-130" value="&lt;font style=&quot;font-size: 16px;&quot;&gt;&lt;b style=&quot;&quot;&gt;Shared&lt;/b&gt;&lt;br&gt;&lt;/font&gt;_Layout.cshtml,&amp;nbsp;Error.cshtml,&lt;br&gt;_ValidationScriptsPartial.cshtml" style="ellipse;whiteSpace=wrap;html=1;fillColor=#b0e3e6;strokeColor=#0e8088;verticalAlign=top;" parent="1" vertex="1">
          <mxGeometry x="1029.07" y="-112.5" width="200" height="72.5" as="geometry" />
        </mxCell>
        <mxCell id="cQSAukFgM9H1RLstrKh2-196" style="edgeStyle=orthogonalEdgeStyle;rounded=0;orthogonalLoop=1;jettySize=auto;html=1;exitX=0.079;exitY=0.011;exitDx=0;exitDy=0;entryX=0;entryY=0.5;entryDx=0;entryDy=0;exitPerimeter=0;" parent="1" source="cQSAukFgM9H1RLstrKh2-131" target="cQSAukFgM9H1RLstrKh2-138" edge="1">
          <mxGeometry relative="1" as="geometry" />
        </mxCell>
        <mxCell id="oZ6fTYHKEGw5SNDz8hmi-25" style="edgeStyle=orthogonalEdgeStyle;rounded=0;orthogonalLoop=1;jettySize=auto;html=1;exitX=0.75;exitY=1;exitDx=0;exitDy=0;entryX=0.555;entryY=-0.004;entryDx=0;entryDy=0;entryPerimeter=0;" parent="1" source="cQSAukFgM9H1RLstrKh2-131" target="oZ6fTYHKEGw5SNDz8hmi-18" edge="1">
          <mxGeometry relative="1" as="geometry" />
        </mxCell>
        <mxCell id="oZ6fTYHKEGw5SNDz8hmi-26" style="edgeStyle=orthogonalEdgeStyle;rounded=0;orthogonalLoop=1;jettySize=auto;html=1;exitX=0;exitY=0.5;exitDx=0;exitDy=0;entryX=0.5;entryY=1;entryDx=0;entryDy=0;entryPerimeter=0;" parent="1" source="cQSAukFgM9H1RLstrKh2-131" target="oZ6fTYHKEGw5SNDz8hmi-22" edge="1">
          <mxGeometry relative="1" as="geometry" />
        </mxCell>
        <mxCell id="oZ6fTYHKEGw5SNDz8hmi-29" style="edgeStyle=orthogonalEdgeStyle;rounded=0;orthogonalLoop=1;jettySize=auto;html=1;exitX=0;exitY=0.75;exitDx=0;exitDy=0;entryX=0.478;entryY=-0.013;entryDx=0;entryDy=0;entryPerimeter=0;" parent="1" source="cQSAukFgM9H1RLstrKh2-131" target="oZ6fTYHKEGw5SNDz8hmi-28" edge="1">
          <mxGeometry relative="1" as="geometry" />
        </mxCell>
        <mxCell id="cQSAukFgM9H1RLstrKh2-131" value="&lt;b style=&quot;border-color: var(--border-color);&quot;&gt;HomeController.cs&lt;/b&gt;&lt;font style=&quot;&quot;&gt;&lt;br&gt;Index(),&amp;nbsp;Privacy(),&amp;nbsp;Error()&lt;br&gt;&lt;/font&gt;" style="rounded=0;whiteSpace=wrap;html=1;fillColor=#cce5ff;strokeColor=#36393d;fontSize=14;verticalAlign=top;" parent="1" vertex="1">
          <mxGeometry x="139.56999999999994" y="-590" width="190" height="50" as="geometry" />
        </mxCell>
        <mxCell id="cQSAukFgM9H1RLstrKh2-179" style="edgeStyle=orthogonalEdgeStyle;rounded=0;orthogonalLoop=1;jettySize=auto;html=1;exitX=0.028;exitY=0;exitDx=0;exitDy=0;entryX=0.128;entryY=0.995;entryDx=0;entryDy=0;entryPerimeter=0;exitPerimeter=0;" parent="1" source="cQSAukFgM9H1RLstrKh2-132" target="cQSAukFgM9H1RLstrKh2-145" edge="1">
          <mxGeometry relative="1" as="geometry" />
        </mxCell>
        <mxCell id="cQSAukFgM9H1RLstrKh2-185" style="edgeStyle=orthogonalEdgeStyle;rounded=0;orthogonalLoop=1;jettySize=auto;html=1;exitX=1;exitY=0.143;exitDx=0;exitDy=0;entryX=0;entryY=0.5;entryDx=0;entryDy=0;exitPerimeter=0;" parent="1" source="cQSAukFgM9H1RLstrKh2-132" target="cQSAukFgM9H1RLstrKh2-134" edge="1">
          <mxGeometry relative="1" as="geometry">
            <Array as="points">
              <mxPoint x="1284.57" y="-680" />
              <mxPoint x="1284.57" y="-730" />
            </Array>
          </mxGeometry>
        </mxCell>
        <mxCell id="cQSAukFgM9H1RLstrKh2-186" style="edgeStyle=orthogonalEdgeStyle;rounded=0;orthogonalLoop=1;jettySize=auto;html=1;exitX=0.687;exitY=1.001;exitDx=0;exitDy=0;entryX=0.465;entryY=-0.004;entryDx=0;entryDy=0;entryPerimeter=0;exitPerimeter=0;" parent="1" source="cQSAukFgM9H1RLstrKh2-132" target="cQSAukFgM9H1RLstrKh2-148" edge="1">
          <mxGeometry relative="1" as="geometry">
            <mxPoint x="1078.1700000000003" y="-587.7799999999997" as="sourcePoint" />
          </mxGeometry>
        </mxCell>
        <mxCell id="cQSAukFgM9H1RLstrKh2-200" style="edgeStyle=orthogonalEdgeStyle;rounded=0;orthogonalLoop=1;jettySize=auto;html=1;exitX=1.001;exitY=0.663;exitDx=0;exitDy=0;entryX=0.172;entryY=1.004;entryDx=0;entryDy=0;entryPerimeter=0;exitPerimeter=0;" parent="1" source="cQSAukFgM9H1RLstrKh2-132" target="cQSAukFgM9H1RLstrKh2-147" edge="1">
          <mxGeometry relative="1" as="geometry" />
        </mxCell>
        <mxCell id="cQSAukFgM9H1RLstrKh2-132" value="&lt;b style=&quot;border-color: var(--border-color);&quot;&gt;ClubController.cs&lt;/b&gt;&lt;font style=&quot;&quot;&gt;&lt;br&gt;Index(), DetailClub(int id), 2Create(),&lt;br&gt;2Edit(...), 2Delete(...)&lt;br&gt;&lt;/font&gt;" style="rounded=0;whiteSpace=wrap;html=1;fillColor=#cce5ff;strokeColor=#36393d;fontSize=14;verticalAlign=top;" parent="1" vertex="1">
          <mxGeometry x="924.57" y="-660" width="240" height="70" as="geometry" />
        </mxCell>
        <mxCell id="cQSAukFgM9H1RLstrKh2-188" style="edgeStyle=orthogonalEdgeStyle;rounded=0;orthogonalLoop=1;jettySize=auto;html=1;exitX=0.665;exitY=0.999;exitDx=0;exitDy=0;entryX=0.5;entryY=0;entryDx=0;entryDy=0;exitPerimeter=0;" parent="1" source="cQSAukFgM9H1RLstrKh2-133" target="cQSAukFgM9H1RLstrKh2-149" edge="1">
          <mxGeometry relative="1" as="geometry">
            <mxPoint x="1474.9799999999998" y="-367.5699999999997" as="sourcePoint" />
          </mxGeometry>
        </mxCell>
        <mxCell id="cQSAukFgM9H1RLstrKh2-190" style="edgeStyle=orthogonalEdgeStyle;rounded=0;orthogonalLoop=1;jettySize=auto;html=1;exitX=1;exitY=0.5;exitDx=0;exitDy=0;entryX=0;entryY=0.5;entryDx=0;entryDy=0;" parent="1" source="cQSAukFgM9H1RLstrKh2-133" target="cQSAukFgM9H1RLstrKh2-135" edge="1">
          <mxGeometry relative="1" as="geometry" />
        </mxCell>
        <mxCell id="cQSAukFgM9H1RLstrKh2-191" style="edgeStyle=orthogonalEdgeStyle;rounded=0;orthogonalLoop=1;jettySize=auto;html=1;entryX=0.181;entryY=1.005;entryDx=0;entryDy=0;entryPerimeter=0;exitX=0.032;exitY=-0.004;exitDx=0;exitDy=0;exitPerimeter=0;" parent="1" source="cQSAukFgM9H1RLstrKh2-133" target="cQSAukFgM9H1RLstrKh2-146" edge="1">
          <mxGeometry relative="1" as="geometry">
            <mxPoint x="1323.57" y="-480" as="sourcePoint" />
          </mxGeometry>
        </mxCell>
        <mxCell id="cQSAukFgM9H1RLstrKh2-199" style="edgeStyle=orthogonalEdgeStyle;rounded=0;orthogonalLoop=1;jettySize=auto;html=1;exitX=0;exitY=0.25;exitDx=0;exitDy=0;entryX=0.217;entryY=1.001;entryDx=0;entryDy=0;entryPerimeter=0;" parent="1" source="cQSAukFgM9H1RLstrKh2-133" target="cQSAukFgM9H1RLstrKh2-147" edge="1">
          <mxGeometry relative="1" as="geometry" />
        </mxCell>
        <mxCell id="cQSAukFgM9H1RLstrKh2-133" value="&lt;b style=&quot;border-color: var(--border-color);&quot;&gt;RaceController.cs&lt;/b&gt;&lt;font style=&quot;&quot;&gt;&lt;br&gt;Index(), DetailRace(int id), 2Create(),&lt;br style=&quot;border-color: var(--border-color);&quot;&gt;2Edit(...), 2Delete(...)&lt;br&gt;&lt;/font&gt;" style="rounded=0;whiteSpace=wrap;html=1;fillColor=#cce5ff;strokeColor=#36393d;fontSize=14;verticalAlign=top;" parent="1" vertex="1">
          <mxGeometry x="1315.3799999999999" y="-440" width="240" height="67.5" as="geometry" />
        </mxCell>
        <mxCell id="cQSAukFgM9H1RLstrKh2-134" value="&lt;font size=&quot;1&quot; style=&quot;&quot;&gt;&lt;b style=&quot;font-size: 15px;&quot;&gt;Club.cs&lt;/b&gt;&lt;/font&gt;" style="shape=hexagon;perimeter=hexagonPerimeter2;whiteSpace=wrap;html=1;fixedSize=1;fillColor=#f5f5f5;strokeColor=#666666;gradientColor=#b3b3b3;" parent="1" vertex="1">
          <mxGeometry x="1302.97" y="-755" width="120" height="50" as="geometry" />
        </mxCell>
        <mxCell id="cQSAukFgM9H1RLstrKh2-135" value="&lt;font size=&quot;1&quot; style=&quot;&quot;&gt;&lt;b style=&quot;font-size: 15px;&quot;&gt;Race.cs&lt;/b&gt;&lt;/font&gt;" style="shape=hexagon;perimeter=hexagonPerimeter2;whiteSpace=wrap;html=1;fixedSize=1;fillColor=#f5f5f5;strokeColor=#666666;gradientColor=#b3b3b3;" parent="1" vertex="1">
          <mxGeometry x="1618.44" y="-520" width="120" height="50" as="geometry" />
        </mxCell>
        <mxCell id="-xwD7tMcW1czYIhG800J-16" style="edgeStyle=orthogonalEdgeStyle;rounded=0;orthogonalLoop=1;jettySize=auto;html=1;exitX=0.672;exitY=0.009;exitDx=0;exitDy=0;entryX=0.594;entryY=0.808;entryDx=0;entryDy=0;entryPerimeter=0;shape=link;exitPerimeter=0;" parent="1" source="cQSAukFgM9H1RLstrKh2-137" target="-xwD7tMcW1czYIhG800J-15" edge="1">
          <mxGeometry relative="1" as="geometry" />
        </mxCell>
        <mxCell id="cQSAukFgM9H1RLstrKh2-137" value="&lt;font size=&quot;1&quot; style=&quot;&quot;&gt;&lt;b style=&quot;font-size: 15px;&quot;&gt;AppUser.cs&lt;/b&gt;&lt;/font&gt;" style="shape=hexagon;perimeter=hexagonPerimeter2;whiteSpace=wrap;html=1;fixedSize=1;fillColor=#f5f5f5;strokeColor=#666666;gradientColor=#b3b3b3;" parent="1" vertex="1">
          <mxGeometry x="684.57" y="-745" width="120" height="50" as="geometry" />
        </mxCell>
        <mxCell id="cQSAukFgM9H1RLstrKh2-138" value="&lt;b&gt;&lt;font style=&quot;font-size: 15px;&quot;&gt;ErrorViewModel.cs&lt;/font&gt;&lt;/b&gt;" style="shape=hexagon;perimeter=hexagonPerimeter2;whiteSpace=wrap;html=1;fixedSize=1;fillColor=#f5f5f5;strokeColor=#666666;gradientColor=#b3b3b3;" parent="1" vertex="1">
          <mxGeometry x="177.64" y="-675" width="161.93" height="50" as="geometry" />
        </mxCell>
        <mxCell id="cQSAukFgM9H1RLstrKh2-139" style="rounded=0;orthogonalLoop=1;jettySize=auto;html=1;exitX=1;exitY=0;exitDx=0;exitDy=0;entryX=0.375;entryY=1.02;entryDx=0;entryDy=0;entryPerimeter=0;dashed=1;strokeWidth=3;strokeColor=#9673A6;" parent="1" source="cQSAukFgM9H1RLstrKh2-140" target="cQSAukFgM9H1RLstrKh2-141" edge="1">
          <mxGeometry relative="1" as="geometry" />
        </mxCell>
        <mxCell id="cQSAukFgM9H1RLstrKh2-178" style="edgeStyle=orthogonalEdgeStyle;rounded=0;orthogonalLoop=1;jettySize=auto;html=1;exitX=0.5;exitY=1;exitDx=0;exitDy=0;entryX=1;entryY=0.5;entryDx=0;entryDy=0;dashed=1;" parent="1" source="cQSAukFgM9H1RLstrKh2-140" target="cQSAukFgM9H1RLstrKh2-135" edge="1">
          <mxGeometry relative="1" as="geometry" />
        </mxCell>
        <mxCell id="oZ6fTYHKEGw5SNDz8hmi-33" style="rounded=0;orthogonalLoop=1;jettySize=auto;html=1;exitX=0.25;exitY=0;exitDx=0;exitDy=0;entryX=0.705;entryY=0.8;entryDx=0;entryDy=0;entryPerimeter=0;shape=link;" parent="1" source="cQSAukFgM9H1RLstrKh2-140" target="oZ6fTYHKEGw5SNDz8hmi-31" edge="1">
          <mxGeometry relative="1" as="geometry" />
        </mxCell>
        <mxCell id="cQSAukFgM9H1RLstrKh2-140" value="&lt;font style=&quot;font-size: 13px;&quot;&gt;&lt;b&gt;&lt;font style=&quot;font-size: 14px;&quot;&gt;Data&lt;/font&gt;&lt;br&gt;AppDbContext.cs&lt;br&gt;&lt;/b&gt;DbSet&amp;lt;Race&amp;gt; Races&lt;br&gt;&lt;/font&gt;" style="shape=parallelogram;perimeter=parallelogramPerimeter;whiteSpace=wrap;html=1;fixedSize=1;fillColor=#cdeb8b;strokeColor=#36393d;verticalAlign=top;" parent="1" vertex="1">
          <mxGeometry x="1694.87" y="-627.5" width="183.44" height="60" as="geometry" />
        </mxCell>
        <mxCell id="cQSAukFgM9H1RLstrKh2-141" value="&lt;b&gt;&lt;font style=&quot;font-size: 20px;&quot;&gt;RunGroups&lt;/font&gt;&lt;/b&gt;" style="shape=cylinder3;whiteSpace=wrap;html=1;boundedLbl=1;backgroundOutline=1;size=15;fillColor=#e1d5e7;strokeColor=#9673a6;" parent="1" vertex="1">
          <mxGeometry x="1799.0599999999997" y="-861.25" width="130" height="100" as="geometry" />
        </mxCell>
        <mxCell id="cQSAukFgM9H1RLstrKh2-177" style="edgeStyle=orthogonalEdgeStyle;rounded=0;orthogonalLoop=1;jettySize=auto;html=1;exitX=0.5;exitY=1;exitDx=0;exitDy=0;entryX=1;entryY=0.5;entryDx=0;entryDy=0;dashed=1;" parent="1" source="cQSAukFgM9H1RLstrKh2-142" target="cQSAukFgM9H1RLstrKh2-134" edge="1">
          <mxGeometry relative="1" as="geometry" />
        </mxCell>
        <mxCell id="oZ6fTYHKEGw5SNDz8hmi-32" style="rounded=0;orthogonalLoop=1;jettySize=auto;html=1;exitX=0.75;exitY=0;exitDx=0;exitDy=0;entryX=0.26;entryY=0.983;entryDx=0;entryDy=0;entryPerimeter=0;shape=link;" parent="1" source="cQSAukFgM9H1RLstrKh2-142" target="oZ6fTYHKEGw5SNDz8hmi-31" edge="1">
          <mxGeometry relative="1" as="geometry" />
        </mxCell>
        <mxCell id="cQSAukFgM9H1RLstrKh2-142" value="&lt;font style=&quot;font-size: 13px;&quot;&gt;&lt;b&gt;&lt;font style=&quot;font-size: 14px;&quot;&gt;Data&lt;/font&gt;&lt;br&gt;AppDbContext.cs&lt;br&gt;&lt;/b&gt;DbSet&amp;lt;Club&amp;gt; Clubs&lt;br&gt;&lt;/font&gt;" style="shape=parallelogram;perimeter=parallelogramPerimeter;whiteSpace=wrap;html=1;fixedSize=1;fillColor=#cdeb8b;strokeColor=#36393d;verticalAlign=top;" parent="1" vertex="1">
          <mxGeometry x="1410.59" y="-830" width="183.44" height="60" as="geometry" />
        </mxCell>
        <mxCell id="cQSAukFgM9H1RLstrKh2-159" style="edgeStyle=orthogonalEdgeStyle;rounded=0;orthogonalLoop=1;jettySize=auto;html=1;exitX=0.5;exitY=1;exitDx=0;exitDy=0;entryX=0.5;entryY=0;entryDx=0;entryDy=0;shape=link;" parent="1" source="cQSAukFgM9H1RLstrKh2-145" target="cQSAukFgM9H1RLstrKh2-152" edge="1">
          <mxGeometry relative="1" as="geometry" />
        </mxCell>
        <mxCell id="cQSAukFgM9H1RLstrKh2-145" value="&lt;font style=&quot;border-color: var(--border-color); font-size: 16px;&quot;&gt;&lt;b style=&quot;border-color: var(--border-color);&quot;&gt;interface&lt;/b&gt;&amp;nbsp;&lt;font style=&quot;border-color: var(--border-color);&quot; color=&quot;#ff3333&quot;&gt;&lt;b style=&quot;border-color: var(--border-color);&quot;&gt;IClubRepository&lt;/b&gt;&lt;/font&gt;&lt;/font&gt;&lt;br style=&quot;border-color: var(--border-color); font-size: 14px;&quot;&gt;&lt;font style=&quot;border-color: var(--border-color);&quot;&gt;GetAll(),&amp;nbsp;GetByIdAsync(int id),&amp;nbsp;GetClubByCity(string city)&lt;br&gt;Add,Update,Delete,Save&lt;br&gt;&lt;/font&gt;" style="shape=dataStorage;whiteSpace=wrap;html=1;fixedSize=1;fillColor=#d0cee2;strokeColor=#56517e;" parent="1" vertex="1">
          <mxGeometry x="887.69" y="-861.25" width="341.38" height="70" as="geometry" />
        </mxCell>
        <mxCell id="cQSAukFgM9H1RLstrKh2-161" style="edgeStyle=orthogonalEdgeStyle;rounded=0;orthogonalLoop=1;jettySize=auto;html=1;exitX=0.538;exitY=0.995;exitDx=0;exitDy=0;entryX=0.5;entryY=0;entryDx=0;entryDy=0;shape=link;exitPerimeter=0;" parent="1" source="cQSAukFgM9H1RLstrKh2-146" target="cQSAukFgM9H1RLstrKh2-153" edge="1">
          <mxGeometry relative="1" as="geometry" />
        </mxCell>
        <mxCell id="cQSAukFgM9H1RLstrKh2-146" value="&lt;font style=&quot;border-color: var(--border-color); font-size: 16px;&quot;&gt;&lt;b style=&quot;border-color: var(--border-color);&quot;&gt;interface&lt;/b&gt;&amp;nbsp;&lt;font style=&quot;border-color: var(--border-color);&quot; color=&quot;#ff3333&quot;&gt;&lt;b style=&quot;border-color: var(--border-color);&quot;&gt;IRaceRepository&lt;/b&gt;&lt;/font&gt;&lt;/font&gt;&lt;br style=&quot;border-color: var(--border-color); font-size: 14px;&quot;&gt;&lt;font style=&quot;border-color: var(--border-color);&quot;&gt;GetAll(),&amp;nbsp;GetByIdAsync(int id),&amp;nbsp;GetRaceByCity(string city)&lt;br&gt;Add,Update,Delete,Save&lt;br&gt;&lt;/font&gt;" style="shape=dataStorage;whiteSpace=wrap;html=1;fixedSize=1;fillColor=#d0cee2;strokeColor=#56517e;" parent="1" vertex="1">
          <mxGeometry x="1259.84" y="-627.5" width="351.08" height="70" as="geometry" />
        </mxCell>
        <mxCell id="cQSAukFgM9H1RLstrKh2-160" style="edgeStyle=orthogonalEdgeStyle;rounded=0;orthogonalLoop=1;jettySize=auto;html=1;entryX=0.527;entryY=-0.005;entryDx=0;entryDy=0;entryPerimeter=0;shape=link;exitX=0.783;exitY=0.993;exitDx=0;exitDy=0;exitPerimeter=0;" parent="1" source="cQSAukFgM9H1RLstrKh2-147" target="cQSAukFgM9H1RLstrKh2-155" edge="1">
          <mxGeometry relative="1" as="geometry">
            <mxPoint x="1356.08" y="-1010" as="sourcePoint" />
          </mxGeometry>
        </mxCell>
        <mxCell id="cQSAukFgM9H1RLstrKh2-147" value="&lt;font style=&quot;border-color: var(--border-color); font-size: 16px;&quot;&gt;&lt;b style=&quot;border-color: var(--border-color);&quot;&gt;interface&lt;/b&gt;&amp;nbsp;&lt;font style=&quot;border-color: var(--border-color);&quot; color=&quot;#ff3333&quot;&gt;&lt;b style=&quot;border-color: var(--border-color);&quot;&gt;IPhotoService&lt;/b&gt;&lt;/font&gt;&lt;/font&gt;&lt;br style=&quot;border-color: var(--border-color); font-size: 14px;&quot;&gt;&lt;font style=&quot;border-color: var(--border-color);&quot;&gt;AddPhotoAsync(IFormFile file),&amp;nbsp;&lt;br&gt;DeletePhotoAsync(string publicId)&lt;br&gt;&lt;/font&gt;" style="shape=dataStorage;whiteSpace=wrap;html=1;fixedSize=1;fillColor=#d0cee2;strokeColor=#56517e;" parent="1" vertex="1">
          <mxGeometry x="1194.5699999999997" y="-1080" width="252.62" height="70" as="geometry" />
        </mxCell>
        <mxCell id="cQSAukFgM9H1RLstrKh2-148" value="&lt;font style=&quot;&quot;&gt;&lt;font color=&quot;#006600&quot;&gt;&lt;b style=&quot;&quot;&gt;CreateClubVM.cs,&lt;br&gt;&amp;nbsp;&lt;/b&gt;&lt;b style=&quot;border-color: var(--border-color);&quot;&gt;EditClubVM.cs&lt;/b&gt;&lt;/font&gt;&lt;br&gt;&lt;/font&gt;&lt;span style=&quot;font-size: 14px;&quot;&gt;&lt;font style=&quot;font-size: 14px;&quot;&gt;Properties&lt;br&gt;&lt;/font&gt;&lt;/span&gt;" style="rounded=0;whiteSpace=wrap;html=1;fillColor=#d5e8d4;strokeColor=#82b366;fontSize=14;verticalAlign=top;" parent="1" vertex="1">
          <mxGeometry x="1024.57" y="-572.5" width="140" height="70" as="geometry" />
        </mxCell>
        <mxCell id="cQSAukFgM9H1RLstrKh2-149" value="&lt;font style=&quot;&quot;&gt;&lt;font color=&quot;#006600&quot;&gt;&lt;b&gt;CreateRaceVM.cs&lt;br&gt;&lt;/b&gt;&lt;b style=&quot;border-color: var(--border-color);&quot;&gt;EditRaceVM.cs&lt;/b&gt;&lt;/font&gt;&lt;br&gt;&lt;/font&gt;&lt;span style=&quot;font-size: 14px;&quot;&gt;&lt;font style=&quot;font-size: 14px;&quot;&gt;Properties&lt;br&gt;&lt;/font&gt;&lt;/span&gt;" style="rounded=0;whiteSpace=wrap;html=1;fillColor=#d5e8d4;strokeColor=#82b366;fontSize=14;verticalAlign=top;" parent="1" vertex="1">
          <mxGeometry x="1394.45" y="-352.5" width="160.93" height="62.5" as="geometry" />
        </mxCell>
        <mxCell id="cQSAukFgM9H1RLstrKh2-150" style="rounded=0;orthogonalLoop=1;jettySize=auto;html=1;exitX=1;exitY=0;exitDx=0;exitDy=0;entryX=0;entryY=0;entryDx=0;entryDy=67.5;entryPerimeter=0;dashed=1;strokeWidth=3;strokeColor=#9673A6;" parent="1" source="cQSAukFgM9H1RLstrKh2-142" target="cQSAukFgM9H1RLstrKh2-141" edge="1">
          <mxGeometry relative="1" as="geometry">
            <mxPoint x="1491.4399999999998" y="-850" as="sourcePoint" />
            <mxPoint x="1743.4399999999998" y="-1000" as="targetPoint" />
          </mxGeometry>
        </mxCell>
        <mxCell id="ifd4lvwsygBwF9mz3tTz-7" style="edgeStyle=orthogonalEdgeStyle;rounded=0;orthogonalLoop=1;jettySize=auto;html=1;exitX=0.5;exitY=1;exitDx=0;exitDy=0;" parent="1" source="cQSAukFgM9H1RLstrKh2-151" target="ifd4lvwsygBwF9mz3tTz-5" edge="1">
          <mxGeometry relative="1" as="geometry" />
        </mxCell>
        <mxCell id="cQSAukFgM9H1RLstrKh2-151" value="&lt;font style=&quot;&quot;&gt;&lt;font style=&quot;font-size: 13px;&quot;&gt;Program.cs&lt;/font&gt;&lt;br&gt;&lt;span style=&quot;font-size: 17px;&quot;&gt;&amp;nbsp;&lt;/span&gt;&lt;font style=&quot;font-size: 12px;&quot;&gt;builder.Services.(connections: interfaces, repositories, cloud, database and seeddata)&lt;br&gt;&lt;/font&gt;app.UseAuthentication(); app.UseAuthorization();&lt;br&gt;&lt;/font&gt;" style="rounded=1;whiteSpace=wrap;html=1;fillColor=#fad9d5;strokeColor=#ae4132;verticalAlign=top;" parent="1" vertex="1">
          <mxGeometry x="327.5" y="-312.5" width="270" height="90" as="geometry" />
        </mxCell>
        <mxCell id="ifd4lvwsygBwF9mz3tTz-4" style="rounded=0;orthogonalLoop=1;jettySize=auto;html=1;exitX=1;exitY=0.5;exitDx=0;exitDy=0;entryX=0;entryY=0.25;entryDx=0;entryDy=0;dashed=1;strokeColor=#CDEB8B;strokeWidth=3;" parent="1" source="cQSAukFgM9H1RLstrKh2-152" target="cQSAukFgM9H1RLstrKh2-142" edge="1">
          <mxGeometry relative="1" as="geometry" />
        </mxCell>
        <mxCell id="cQSAukFgM9H1RLstrKh2-152" value="&lt;font style=&quot;&quot;&gt;&lt;b style=&quot;&quot;&gt;&lt;font style=&quot;font-size: 16px;&quot;&gt;Repository&lt;/font&gt;&lt;/b&gt;&lt;br&gt;&lt;font style=&quot;font-size: 13px;&quot;&gt;ClubRepository.cs&lt;br&gt;&lt;/font&gt;(implementation&amp;nbsp;methods from interface)&lt;br&gt;&lt;/font&gt;" style="rounded=1;whiteSpace=wrap;html=1;fillColor=#bac8d3;strokeColor=#23445d;verticalAlign=top;" parent="1" vertex="1">
          <mxGeometry x="943.8100000000001" y="-776.25" width="229.13" height="70" as="geometry" />
        </mxCell>
        <mxCell id="ifd4lvwsygBwF9mz3tTz-3" style="rounded=0;orthogonalLoop=1;jettySize=auto;html=1;exitX=1;exitY=0.25;exitDx=0;exitDy=0;entryX=0;entryY=0.5;entryDx=0;entryDy=0;dashed=1;strokeColor=#CDEB8B;strokeWidth=3;" parent="1" source="cQSAukFgM9H1RLstrKh2-153" target="cQSAukFgM9H1RLstrKh2-140" edge="1">
          <mxGeometry relative="1" as="geometry" />
        </mxCell>
        <mxCell id="cQSAukFgM9H1RLstrKh2-153" value="&lt;font style=&quot;&quot;&gt;&lt;b style=&quot;&quot;&gt;&lt;font style=&quot;font-size: 16px;&quot;&gt;Repository&lt;/font&gt;&lt;/b&gt;&lt;br&gt;&lt;font style=&quot;font-size: 13px;&quot;&gt;RaceRepository.cs&lt;br&gt;&lt;/font&gt;(implementation&amp;nbsp;methods from interface)&lt;br&gt;&lt;/font&gt;" style="rounded=1;whiteSpace=wrap;html=1;fillColor=#bac8d3;strokeColor=#23445d;verticalAlign=top;" parent="1" vertex="1">
          <mxGeometry x="1333.9399999999998" y="-542.5" width="229.13" height="70" as="geometry" />
        </mxCell>
        <mxCell id="cQSAukFgM9H1RLstrKh2-154" value="&lt;font style=&quot;&quot;&gt;&lt;b style=&quot;&quot;&gt;&lt;font style=&quot;font-size: 16px;&quot;&gt;Helper&lt;/font&gt;&lt;/b&gt;&lt;br&gt;&lt;font style=&quot;font-size: 13px;&quot;&gt;CloudinarySettings.cs&lt;br&gt;&lt;/font&gt;CloudName,&amp;nbsp;ApiKey, ApiSecret&lt;br&gt;&lt;/font&gt;" style="rounded=1;whiteSpace=wrap;html=1;fillColor=#fad7ac;strokeColor=#b46504;verticalAlign=top;" parent="1" vertex="1">
          <mxGeometry x="1295.1299999999999" y="-900" width="182.67" height="60" as="geometry" />
        </mxCell>
        <mxCell id="cQSAukFgM9H1RLstrKh2-157" style="edgeStyle=orthogonalEdgeStyle;rounded=0;orthogonalLoop=1;jettySize=auto;html=1;exitX=0.5;exitY=1;exitDx=0;exitDy=0;entryX=0.5;entryY=0;entryDx=0;entryDy=0;" parent="1" source="cQSAukFgM9H1RLstrKh2-155" target="cQSAukFgM9H1RLstrKh2-154" edge="1">
          <mxGeometry relative="1" as="geometry" />
        </mxCell>
        <mxCell id="cQSAukFgM9H1RLstrKh2-155" value="&lt;font style=&quot;&quot;&gt;&lt;b style=&quot;&quot;&gt;&lt;font style=&quot;font-size: 16px;&quot;&gt;Services&lt;/font&gt;&lt;/b&gt;&lt;br&gt;&lt;font style=&quot;font-size: 13px;&quot;&gt;PhotoService.cs&lt;br&gt;&lt;/font&gt;(implementation&amp;nbsp;methods from interface)&lt;br&gt;&lt;/font&gt;" style="rounded=1;whiteSpace=wrap;html=1;fillColor=#fff2cc;strokeColor=#d6b656;verticalAlign=top;" parent="1" vertex="1">
          <mxGeometry x="1271.8999999999999" y="-990" width="229.13" height="70" as="geometry" />
        </mxCell>
        <mxCell id="cQSAukFgM9H1RLstrKh2-156" value="&lt;font style=&quot;&quot;&gt;&lt;font style=&quot;font-size: 13px;&quot;&gt;appsettings.json&lt;/font&gt;&lt;br&gt;&lt;span style=&quot;font-size: 17px;&quot;&gt;&amp;nbsp;(&lt;/span&gt;&lt;font style=&quot;font-size: 12px;&quot;&gt;database and cloud settings for connection)&lt;/font&gt;&lt;br&gt;&lt;/font&gt;" style="rounded=1;whiteSpace=wrap;html=1;fillColor=#fad9d5;strokeColor=#ae4132;verticalAlign=top;" parent="1" vertex="1">
          <mxGeometry x="40" y="-302.5" width="270" height="50" as="geometry" />
        </mxCell>
        <mxCell id="cQSAukFgM9H1RLstrKh2-175" value="&lt;font size=&quot;1&quot; style=&quot;&quot;&gt;&lt;b style=&quot;font-size: 15px;&quot;&gt;Controller&lt;/b&gt;&lt;/font&gt;" style="rounded=0;whiteSpace=wrap;html=1;fillColor=#dae8fc;strokeColor=#6c8ebf;" parent="1" vertex="1">
          <mxGeometry x="369.85999999999996" y="-1038.75" width="90" height="40" as="geometry" />
        </mxCell>
        <mxCell id="cQSAukFgM9H1RLstrKh2-176" value="&lt;font style=&quot;border-color: var(--border-color);&quot;&gt;&lt;span style=&quot;font-size: 16px;&quot;&gt;&lt;b&gt;Interface&lt;/b&gt;&lt;/span&gt;&lt;br&gt;&lt;/font&gt;" style="shape=dataStorage;whiteSpace=wrap;html=1;fixedSize=1;fillColor=#d0cee2;strokeColor=#56517e;" parent="1" vertex="1">
          <mxGeometry x="725.0099999999999" y="-1038.75" width="141.13" height="40" as="geometry" />
        </mxCell>
        <mxCell id="cQSAukFgM9H1RLstrKh2-202" style="rounded=0;orthogonalLoop=1;jettySize=auto;html=1;exitX=0.736;exitY=0.073;exitDx=0;exitDy=0;shape=link;exitPerimeter=0;" parent="1" source="cQSAukFgM9H1RLstrKh2-130" edge="1">
          <mxGeometry relative="1" as="geometry">
            <mxPoint x="1189.07" y="-140" as="targetPoint" />
            <mxPoint x="1208.6399999999999" y="-66.25" as="sourcePoint" />
          </mxGeometry>
        </mxCell>
        <mxCell id="cQSAukFgM9H1RLstrKh2-203" style="rounded=0;orthogonalLoop=1;jettySize=auto;html=1;exitX=0.212;exitY=0.073;exitDx=0;exitDy=0;shape=link;exitPerimeter=0;" parent="1" source="cQSAukFgM9H1RLstrKh2-130" edge="1">
          <mxGeometry relative="1" as="geometry">
            <mxPoint x="1059.07" y="-140" as="targetPoint" />
            <mxPoint x="1148.6399999999999" y="-56.25" as="sourcePoint" />
          </mxGeometry>
        </mxCell>
        <mxCell id="cQSAukFgM9H1RLstrKh2-204" value="&lt;font style=&quot;&quot;&gt;&lt;b style=&quot;&quot;&gt;&lt;font style=&quot;font-size: 15px;&quot;&gt;Repository&lt;/font&gt;&lt;/b&gt;&lt;br&gt;&lt;/font&gt;" style="rounded=1;whiteSpace=wrap;html=1;fillColor=#bac8d3;strokeColor=#23445d;verticalAlign=middle;" parent="1" vertex="1">
          <mxGeometry x="603.7399999999999" y="-1038.75" width="102.54" height="40" as="geometry" />
        </mxCell>
        <mxCell id="ifd4lvwsygBwF9mz3tTz-1" value="&lt;font style=&quot;font-size: 20px;&quot;&gt;&lt;b&gt;Cloudinary&lt;/b&gt;&lt;/font&gt;" style="ellipse;shape=cloud;whiteSpace=wrap;html=1;fillColor=#f5f5f5;fontColor=#333333;strokeColor=#666666;" parent="1" vertex="1">
          <mxGeometry x="1738.4399999999998" y="-1005" width="160" height="100" as="geometry" />
        </mxCell>
        <mxCell id="ifd4lvwsygBwF9mz3tTz-2" style="rounded=0;orthogonalLoop=1;jettySize=auto;html=1;exitX=1;exitY=0.5;exitDx=0;exitDy=0;entryX=0.068;entryY=0.452;entryDx=0;entryDy=0;entryPerimeter=0;dashed=1;strokeWidth=3;strokeColor=#9673A6;" parent="1" source="cQSAukFgM9H1RLstrKh2-155" target="ifd4lvwsygBwF9mz3tTz-1" edge="1">
          <mxGeometry relative="1" as="geometry">
            <mxPoint x="1603.57" y="-820" as="sourcePoint" />
            <mxPoint x="1888.57" y="-922" as="targetPoint" />
          </mxGeometry>
        </mxCell>
        <mxCell id="ifd4lvwsygBwF9mz3tTz-8" style="edgeStyle=orthogonalEdgeStyle;rounded=0;orthogonalLoop=1;jettySize=auto;html=1;exitX=0.5;exitY=1;exitDx=0;exitDy=0;entryX=0.5;entryY=0;entryDx=0;entryDy=0;" parent="1" source="ifd4lvwsygBwF9mz3tTz-5" target="ifd4lvwsygBwF9mz3tTz-6" edge="1">
          <mxGeometry relative="1" as="geometry" />
        </mxCell>
        <mxCell id="ifd4lvwsygBwF9mz3tTz-5" value="&lt;font style=&quot;&quot;&gt;&lt;font style=&quot;font-size: 14px; font-weight: bold;&quot;&gt;Data&lt;/font&gt;&lt;br&gt;&lt;b&gt;&lt;font style=&quot;font-size: 13px;&quot;&gt;Seed.cs&lt;/font&gt;&lt;/b&gt;&lt;br&gt;SeedData(IApplicationBuilder applicationBuilder)&lt;br&gt;SeedUsersAndRolesAsync(IApplicationBuilder applicationBuilder)&lt;br&gt;&lt;/font&gt;" style="shape=parallelogram;perimeter=parallelogramPerimeter;whiteSpace=wrap;html=1;fixedSize=1;fillColor=#cdeb8b;strokeColor=#36393d;verticalAlign=top;" parent="1" vertex="1">
          <mxGeometry x="312.5" y="-202.5" width="300" height="82.5" as="geometry" />
        </mxCell>
        <mxCell id="ifd4lvwsygBwF9mz3tTz-6" value="&lt;font style=&quot;&quot;&gt;&lt;font style=&quot;font-size: 14px; font-weight: bold;&quot;&gt;Data&lt;/font&gt;&lt;br&gt;&lt;font style=&quot;&quot;&gt;&lt;b&gt;UserRoles.cs&lt;/b&gt;&lt;/font&gt;&lt;br&gt;Admin = &quot;admin&quot;&lt;br&gt;User = &quot;user&quot;;&lt;br&gt;&lt;/font&gt;" style="shape=parallelogram;perimeter=parallelogramPerimeter;whiteSpace=wrap;html=1;fixedSize=1;fillColor=#cdeb8b;strokeColor=#36393d;verticalAlign=top;" parent="1" vertex="1">
          <mxGeometry x="392.5" y="-102.5" width="140" height="80" as="geometry" />
        </mxCell>
        <mxCell id="ifd4lvwsygBwF9mz3tTz-13" style="edgeStyle=orthogonalEdgeStyle;rounded=0;orthogonalLoop=1;jettySize=auto;html=1;exitX=0.621;exitY=0.016;exitDx=0;exitDy=0;entryX=0.395;entryY=1.007;entryDx=0;entryDy=0;entryPerimeter=0;exitPerimeter=0;" parent="1" source="ifd4lvwsygBwF9mz3tTz-10" target="ifd4lvwsygBwF9mz3tTz-12" edge="1">
          <mxGeometry relative="1" as="geometry" />
        </mxCell>
        <mxCell id="ifd4lvwsygBwF9mz3tTz-10" value="&lt;b style=&quot;&quot;&gt;&lt;font style=&quot;font-size: 16px;&quot;&gt;Account&lt;/font&gt;&lt;/b&gt;&lt;br&gt;&lt;font style=&quot;font-size: 13px;&quot;&gt;&lt;font style=&quot;font-size: 13px;&quot; color=&quot;#006600&quot;&gt;Login.cshtml, Register.cshtml&lt;/font&gt;&lt;br&gt;&lt;/font&gt;" style="ellipse;whiteSpace=wrap;html=1;fillColor=#b0e3e6;strokeColor=#0e8088;verticalAlign=top;" parent="1" vertex="1">
          <mxGeometry x="634.19" y="-507.5" width="185" height="55" as="geometry" />
        </mxCell>
        <mxCell id="-xwD7tMcW1czYIhG800J-7" style="edgeStyle=orthogonalEdgeStyle;rounded=0;orthogonalLoop=1;jettySize=auto;html=1;exitX=0.582;exitY=-0.005;exitDx=0;exitDy=0;entryX=0.485;entryY=1.006;entryDx=0;entryDy=0;exitPerimeter=0;entryPerimeter=0;" parent="1" source="ifd4lvwsygBwF9mz3tTz-11" target="cQSAukFgM9H1RLstrKh2-137" edge="1">
          <mxGeometry relative="1" as="geometry" />
        </mxCell>
        <mxCell id="ifd4lvwsygBwF9mz3tTz-11" value="&lt;b style=&quot;border-color: var(--border-color);&quot;&gt;AccountController.cs&lt;/b&gt;&lt;font style=&quot;&quot;&gt;&lt;br&gt;2Login(), 2Register(),&amp;nbsp;Logout()&lt;br&gt;&lt;/font&gt;" style="rounded=0;whiteSpace=wrap;html=1;fillColor=#cce5ff;strokeColor=#36393d;fontSize=14;verticalAlign=top;" parent="1" vertex="1">
          <mxGeometry x="624.57" y="-675" width="204.24" height="60" as="geometry" />
        </mxCell>
        <mxCell id="ifd4lvwsygBwF9mz3tTz-14" style="edgeStyle=orthogonalEdgeStyle;rounded=0;orthogonalLoop=1;jettySize=auto;html=1;exitX=0.5;exitY=0;exitDx=0;exitDy=0;entryX=0.637;entryY=1;entryDx=0;entryDy=0;entryPerimeter=0;" parent="1" source="ifd4lvwsygBwF9mz3tTz-12" target="ifd4lvwsygBwF9mz3tTz-11" edge="1">
          <mxGeometry relative="1" as="geometry" />
        </mxCell>
        <mxCell id="ifd4lvwsygBwF9mz3tTz-12" value="&lt;font style=&quot;&quot;&gt;&lt;font color=&quot;#006600&quot;&gt;&lt;b&gt;LoginVM.cs&lt;br&gt;&lt;/b&gt;&lt;b&gt;RegisterVM.cs&lt;/b&gt;&lt;/font&gt;&lt;br&gt;&lt;/font&gt;&lt;span style=&quot;font-size: 14px;&quot;&gt;&lt;font style=&quot;font-size: 14px;&quot;&gt;Properties&lt;br&gt;&lt;/font&gt;&lt;/span&gt;" style="rounded=0;whiteSpace=wrap;html=1;fillColor=#d5e8d4;strokeColor=#82b366;fontSize=14;verticalAlign=top;" parent="1" vertex="1">
          <mxGeometry x="699.57" y="-595" width="130" height="65" as="geometry" />
        </mxCell>
        <mxCell id="-xwD7tMcW1czYIhG800J-9" style="edgeStyle=orthogonalEdgeStyle;rounded=0;orthogonalLoop=1;jettySize=auto;html=1;exitX=0.5;exitY=0;exitDx=0;exitDy=0;entryX=0.5;entryY=1;entryDx=0;entryDy=0;" parent="1" source="-xwD7tMcW1czYIhG800J-2" target="-xwD7tMcW1czYIhG800J-3" edge="1">
          <mxGeometry relative="1" as="geometry" />
        </mxCell>
        <mxCell id="-xwD7tMcW1czYIhG800J-2" value="&lt;b style=&quot;&quot;&gt;&lt;font style=&quot;font-size: 16px;&quot;&gt;Dashboard&lt;/font&gt;&lt;/b&gt;&lt;br&gt;&lt;font style=&quot;font-size: 13px;&quot;&gt;&lt;font style=&quot;font-size: 13px;&quot; color=&quot;#006600&quot;&gt;Index.cshtml&lt;/font&gt;&lt;br&gt;&lt;/font&gt;" style="ellipse;whiteSpace=wrap;html=1;fillColor=#b0e3e6;strokeColor=#0e8088;verticalAlign=top;" parent="1" vertex="1">
          <mxGeometry x="1650.1699999999998" y="-130" width="120" height="50" as="geometry" />
        </mxCell>
        <mxCell id="-xwD7tMcW1czYIhG800J-3" value="&lt;font style=&quot;&quot;&gt;&lt;b style=&quot;border-color: var(--border-color); color: rgb(0, 102, 0);&quot;&gt;DashboardVM.cs&lt;/b&gt;&lt;br&gt;&lt;/font&gt;&lt;span style=&quot;font-size: 14px;&quot;&gt;&lt;font style=&quot;font-size: 14px;&quot;&gt;Properties&lt;br&gt;&lt;/font&gt;&lt;/span&gt;" style="rounded=0;whiteSpace=wrap;html=1;fillColor=#d5e8d4;strokeColor=#82b366;fontSize=14;verticalAlign=top;" parent="1" vertex="1">
          <mxGeometry x="1645.1699999999998" y="-190" width="130" height="45" as="geometry" />
        </mxCell>
        <mxCell id="-xwD7tMcW1czYIhG800J-10" style="edgeStyle=orthogonalEdgeStyle;rounded=0;orthogonalLoop=1;jettySize=auto;html=1;exitX=0.5;exitY=1;exitDx=0;exitDy=0;entryX=0.5;entryY=0;entryDx=0;entryDy=0;" parent="1" source="-xwD7tMcW1czYIhG800J-4" target="-xwD7tMcW1czYIhG800J-3" edge="1">
          <mxGeometry relative="1" as="geometry" />
        </mxCell>
        <mxCell id="-xwD7tMcW1czYIhG800J-11" style="edgeStyle=orthogonalEdgeStyle;rounded=0;orthogonalLoop=1;jettySize=auto;html=1;exitX=0.109;exitY=-0.027;exitDx=0;exitDy=0;entryX=0.1;entryY=1.003;entryDx=0;entryDy=0;entryPerimeter=0;exitPerimeter=0;" parent="1" source="-xwD7tMcW1czYIhG800J-4" target="-xwD7tMcW1czYIhG800J-5" edge="1">
          <mxGeometry relative="1" as="geometry" />
        </mxCell>
        <mxCell id="-xwD7tMcW1czYIhG800J-4" value="&lt;b style=&quot;border-color: var(--border-color);&quot;&gt;DashboardController.cs&lt;/b&gt;&lt;font style=&quot;&quot;&gt;&lt;br&gt;Index()&lt;br&gt;&lt;/font&gt;" style="rounded=0;whiteSpace=wrap;html=1;fillColor=#cce5ff;strokeColor=#36393d;fontSize=14;verticalAlign=top;" parent="1" vertex="1">
          <mxGeometry x="1625.1699999999998" y="-250" width="170" height="42.5" as="geometry" />
        </mxCell>
        <mxCell id="-xwD7tMcW1czYIhG800J-8" style="edgeStyle=orthogonalEdgeStyle;rounded=0;orthogonalLoop=1;jettySize=auto;html=1;exitX=0.527;exitY=0.997;exitDx=0;exitDy=0;entryX=0.5;entryY=0;entryDx=0;entryDy=0;shape=link;exitPerimeter=0;" parent="1" source="-xwD7tMcW1czYIhG800J-5" target="-xwD7tMcW1czYIhG800J-6" edge="1">
          <mxGeometry relative="1" as="geometry" />
        </mxCell>
        <mxCell id="-xwD7tMcW1czYIhG800J-5" value="&lt;font style=&quot;border-color: var(--border-color); font-size: 16px;&quot;&gt;&lt;b style=&quot;border-color: var(--border-color);&quot;&gt;interface&lt;/b&gt;&amp;nbsp;&lt;font style=&quot;border-color: var(--border-color);&quot; color=&quot;#ff3333&quot;&gt;&lt;b style=&quot;border-color: var(--border-color);&quot;&gt;IDashboardRepository&lt;/b&gt;&lt;/font&gt;&lt;/font&gt;&lt;br style=&quot;border-color: var(--border-color); font-size: 14px;&quot;&gt;&lt;font style=&quot;border-color: var(--border-color);&quot;&gt;GetAllUserRaces(),&amp;nbsp;GetAllUserClubs(),&lt;br&gt;GetUserById(string id),&amp;nbsp;GetByIdNoTracking(string id)&lt;br&gt;Save&lt;br&gt;&lt;/font&gt;" style="shape=dataStorage;whiteSpace=wrap;html=1;fixedSize=1;fillColor=#d0cee2;strokeColor=#56517e;" parent="1" vertex="1">
          <mxGeometry x="1610.9199999999998" y="-430" width="323.65" height="70" as="geometry" />
        </mxCell>
        <mxCell id="-xwD7tMcW1czYIhG800J-13" style="edgeStyle=orthogonalEdgeStyle;rounded=0;orthogonalLoop=1;jettySize=auto;html=1;exitX=1;exitY=0.5;exitDx=0;exitDy=0;entryX=1;entryY=0.5;entryDx=0;entryDy=0;curved=1;strokeWidth=3;dashed=1;strokeColor=#CDEB8B;" parent="1" source="-xwD7tMcW1czYIhG800J-6" target="cQSAukFgM9H1RLstrKh2-140" edge="1">
          <mxGeometry relative="1" as="geometry">
            <Array as="points">
              <mxPoint x="1954.57" y="-310" />
              <mxPoint x="1954.57" y="-598" />
            </Array>
          </mxGeometry>
        </mxCell>
        <mxCell id="-xwD7tMcW1czYIhG800J-14" style="edgeStyle=orthogonalEdgeStyle;rounded=0;orthogonalLoop=1;jettySize=auto;html=1;exitX=1;exitY=0.5;exitDx=0;exitDy=0;entryX=0.893;entryY=0.954;entryDx=0;entryDy=0;curved=1;strokeWidth=3;dashed=1;strokeColor=#CDEB8B;entryPerimeter=0;" parent="1" source="-xwD7tMcW1czYIhG800J-6" target="cQSAukFgM9H1RLstrKh2-142" edge="1">
          <mxGeometry relative="1" as="geometry">
            <Array as="points">
              <mxPoint x="1964.57" y="-310" />
              <mxPoint x="1964.57" y="-660" />
              <mxPoint x="1574.57" y="-660" />
            </Array>
          </mxGeometry>
        </mxCell>
        <mxCell id="-xwD7tMcW1czYIhG800J-6" value="&lt;font style=&quot;&quot;&gt;&lt;b style=&quot;&quot;&gt;&lt;font style=&quot;font-size: 16px;&quot;&gt;Repository&lt;/font&gt;&lt;/b&gt;&lt;br&gt;&lt;font style=&quot;font-size: 13px;&quot;&gt;DashboardRepository.cs&lt;br&gt;&lt;/font&gt;(implementation methods from interface)&lt;br&gt;&lt;/font&gt;" style="rounded=1;whiteSpace=wrap;html=1;fillColor=#bac8d3;strokeColor=#23445d;verticalAlign=top;" parent="1" vertex="1">
          <mxGeometry x="1667.04" y="-345" width="229.13" height="70" as="geometry" />
        </mxCell>
        <mxCell id="-xwD7tMcW1czYIhG800J-15" value="&lt;font style=&quot;&quot;&gt;&lt;i style=&quot;&quot;&gt;&lt;b style=&quot;&quot;&gt;&lt;font color=&quot;#3333ff&quot; style=&quot;font-size: 15px;&quot;&gt;Identity Framework&lt;/font&gt;&lt;/b&gt;&lt;/i&gt;&lt;br&gt;&lt;b style=&quot;font-size: 13px;&quot;&gt;IdentityUser&lt;br&gt;&lt;/b&gt;Id,UserName,NormalizedUserName,Email,&lt;br&gt;NormalizedEmail,EmailConfirmed,PasswordHash,&lt;br&gt;SecurityStamp,ConcurrencyStamp,PhoneNumber,&lt;br&gt;PhoneNumberConfirmed,TwoFactorEnabled...&lt;br&gt;&lt;/font&gt;" style="shape=document;whiteSpace=wrap;html=1;boundedLbl=1;fillColor=#f9f7ed;strokeColor=#36393d;verticalAlign=top;size=0.21428571428571427;" parent="1" vertex="1">
          <mxGeometry x="594.57" y="-945" width="286" height="130" as="geometry" />
        </mxCell>
        <mxCell id="oZ6fTYHKEGw5SNDz8hmi-1" style="edgeStyle=orthogonalEdgeStyle;rounded=0;orthogonalLoop=1;jettySize=auto;html=1;exitX=0.5;exitY=0;exitDx=0;exitDy=0;entryX=0.5;entryY=1;entryDx=0;entryDy=0;" parent="1" source="oZ6fTYHKEGw5SNDz8hmi-2" target="oZ6fTYHKEGw5SNDz8hmi-3" edge="1">
          <mxGeometry relative="1" as="geometry" />
        </mxCell>
        <mxCell id="oZ6fTYHKEGw5SNDz8hmi-2" value="&lt;b style=&quot;&quot;&gt;&lt;font style=&quot;font-size: 16px;&quot;&gt;User&lt;/font&gt;&lt;/b&gt;&lt;br&gt;&lt;font style=&quot;font-size: 13px;&quot;&gt;&lt;font style=&quot;font-size: 13px;&quot; color=&quot;#006600&quot;&gt;Index.cshtml, Detail.cshtml&lt;/font&gt;&lt;br&gt;&lt;/font&gt;" style="ellipse;whiteSpace=wrap;html=1;fillColor=#b0e3e6;strokeColor=#0e8088;verticalAlign=top;" parent="1" vertex="1">
          <mxGeometry x="384.57" y="-510" width="180" height="60" as="geometry" />
        </mxCell>
        <mxCell id="oZ6fTYHKEGw5SNDz8hmi-3" value="&lt;font style=&quot;&quot;&gt;&lt;b style=&quot;border-color: var(--border-color); color: rgb(0, 102, 0);&quot;&gt;UserVM.cs&lt;br&gt;UserDetailVM.cs&lt;/b&gt;&lt;br&gt;&lt;/font&gt;&lt;span style=&quot;font-size: 14px;&quot;&gt;&lt;font style=&quot;font-size: 14px;&quot;&gt;Properties&lt;br&gt;&lt;/font&gt;&lt;/span&gt;" style="rounded=0;whiteSpace=wrap;html=1;fillColor=#d5e8d4;strokeColor=#82b366;fontSize=14;verticalAlign=top;" parent="1" vertex="1">
          <mxGeometry x="414.57" y="-590" width="130" height="65" as="geometry" />
        </mxCell>
        <mxCell id="oZ6fTYHKEGw5SNDz8hmi-4" style="edgeStyle=orthogonalEdgeStyle;rounded=0;orthogonalLoop=1;jettySize=auto;html=1;exitX=0.5;exitY=1;exitDx=0;exitDy=0;entryX=0.5;entryY=0;entryDx=0;entryDy=0;" parent="1" source="oZ6fTYHKEGw5SNDz8hmi-6" target="oZ6fTYHKEGw5SNDz8hmi-3" edge="1">
          <mxGeometry relative="1" as="geometry" />
        </mxCell>
        <mxCell id="oZ6fTYHKEGw5SNDz8hmi-5" style="edgeStyle=orthogonalEdgeStyle;rounded=0;orthogonalLoop=1;jettySize=auto;html=1;exitX=0.884;exitY=-0.024;exitDx=0;exitDy=0;entryX=0.888;entryY=0.979;entryDx=0;entryDy=0;entryPerimeter=0;exitPerimeter=0;" parent="1" source="oZ6fTYHKEGw5SNDz8hmi-6" target="oZ6fTYHKEGw5SNDz8hmi-8" edge="1">
          <mxGeometry relative="1" as="geometry" />
        </mxCell>
        <mxCell id="oZ6fTYHKEGw5SNDz8hmi-10" style="edgeStyle=orthogonalEdgeStyle;rounded=0;orthogonalLoop=1;jettySize=auto;html=1;exitX=1;exitY=0.5;exitDx=0;exitDy=0;entryX=0;entryY=0.5;entryDx=0;entryDy=0;" parent="1" source="oZ6fTYHKEGw5SNDz8hmi-6" target="cQSAukFgM9H1RLstrKh2-137" edge="1">
          <mxGeometry relative="1" as="geometry">
            <Array as="points">
              <mxPoint x="604.57" y="-659" />
              <mxPoint x="604.57" y="-720" />
            </Array>
          </mxGeometry>
        </mxCell>
        <mxCell id="oZ6fTYHKEGw5SNDz8hmi-6" value="&lt;b style=&quot;border-color: var(--border-color);&quot;&gt;UserController.cs&lt;/b&gt;&lt;font style=&quot;&quot;&gt;&lt;br&gt;Index(), Detail(), &lt;br&gt;2EditProfile()&lt;br&gt;&lt;/font&gt;" style="rounded=0;whiteSpace=wrap;html=1;fillColor=#cce5ff;strokeColor=#36393d;fontSize=14;verticalAlign=top;" parent="1" vertex="1">
          <mxGeometry x="374.57" y="-690" width="190" height="62.5" as="geometry" />
        </mxCell>
        <mxCell id="oZ6fTYHKEGw5SNDz8hmi-7" style="edgeStyle=orthogonalEdgeStyle;rounded=0;orthogonalLoop=1;jettySize=auto;html=1;exitX=0.5;exitY=1;exitDx=0;exitDy=0;entryX=0.5;entryY=0;entryDx=0;entryDy=0;shape=link;" parent="1" source="oZ6fTYHKEGw5SNDz8hmi-8" target="oZ6fTYHKEGw5SNDz8hmi-9" edge="1">
          <mxGeometry relative="1" as="geometry" />
        </mxCell>
        <mxCell id="oZ6fTYHKEGw5SNDz8hmi-8" value="&lt;font style=&quot;border-color: var(--border-color); font-size: 16px;&quot;&gt;&lt;b style=&quot;border-color: var(--border-color);&quot;&gt;interface&lt;/b&gt;&amp;nbsp;&lt;font style=&quot;border-color: var(--border-color);&quot; color=&quot;#ff3333&quot;&gt;&lt;b style=&quot;border-color: var(--border-color);&quot;&gt;IUserRepository&lt;/b&gt;&lt;/font&gt;&lt;/font&gt;&lt;br style=&quot;border-color: var(--border-color); font-size: 14px;&quot;&gt;&lt;font style=&quot;border-color: var(--border-color);&quot;&gt;GetAllUsers(), GetUserById(string id),&lt;br&gt;Add,Update,Delete,Save&lt;br&gt;&lt;/font&gt;" style="shape=dataStorage;whiteSpace=wrap;html=1;fixedSize=1;fillColor=#d0cee2;strokeColor=#56517e;" parent="1" vertex="1">
          <mxGeometry x="239.41999999999987" y="-903.75" width="341.38" height="70" as="geometry" />
        </mxCell>
        <mxCell id="oZ6fTYHKEGw5SNDz8hmi-9" value="&lt;font style=&quot;&quot;&gt;&lt;b style=&quot;&quot;&gt;&lt;font style=&quot;font-size: 16px;&quot;&gt;Repository&lt;/font&gt;&lt;/b&gt;&lt;br&gt;&lt;font style=&quot;font-size: 13px;&quot;&gt;UserRepository.cs&lt;br&gt;&lt;/font&gt;(implementation methods from interface)&lt;br&gt;&lt;/font&gt;" style="rounded=1;whiteSpace=wrap;html=1;fillColor=#bac8d3;strokeColor=#23445d;verticalAlign=top;" parent="1" vertex="1">
          <mxGeometry x="295.54" y="-818.75" width="229.13" height="70" as="geometry" />
        </mxCell>
        <mxCell id="oZ6fTYHKEGw5SNDz8hmi-18" value="&lt;font style=&quot;&quot;&gt;&lt;b style=&quot;border-color: var(--border-color); color: rgb(0, 102, 0);&quot;&gt;HomeVM.cs&lt;br&gt;HomeUserCreateVM.cs&lt;/b&gt;&lt;br&gt;&lt;/font&gt;&lt;span style=&quot;font-size: 14px;&quot;&gt;&lt;font style=&quot;font-size: 14px;&quot;&gt;Properties&lt;br&gt;&lt;/font&gt;&lt;/span&gt;" style="rounded=0;whiteSpace=wrap;html=1;fillColor=#d5e8d4;strokeColor=#82b366;fontSize=14;verticalAlign=top;" parent="1" vertex="1">
          <mxGeometry x="189.57" y="-520" width="170" height="60" as="geometry" />
        </mxCell>
        <mxCell id="oZ6fTYHKEGw5SNDz8hmi-22" value="ipinfo.io&lt;br&gt;(getting location based on IP)" style="sketch=0;html=1;dashed=0;whitespace=wrap;fillColor=#2875E2;strokeColor=#ffffff;points=[[0.005,0.63,0],[0.1,0.2,0],[0.9,0.2,0],[0.5,0,0],[0.995,0.63,0],[0.72,0.99,0],[0.5,1,0],[0.28,0.99,0]];verticalLabelPosition=top;align=center;verticalAlign=bottom;shape=mxgraph.kubernetes.icon;prIcon=api;labelPosition=center;" parent="1" vertex="1">
          <mxGeometry x="54.57" y="-775" width="110" height="100" as="geometry" />
        </mxCell>
        <mxCell id="oZ6fTYHKEGw5SNDz8hmi-28" value="&lt;font style=&quot;&quot;&gt;&lt;b style=&quot;&quot;&gt;&lt;font style=&quot;font-size: 16px;&quot;&gt;Helper&lt;/font&gt;&lt;/b&gt;&lt;br&gt;&lt;font style=&quot;font-size: 13px;&quot;&gt;IPInfo.cs&lt;br&gt;&lt;/font&gt;Ip,&amp;nbsp;Hostname, City...&lt;br&gt;&lt;/font&gt;" style="rounded=1;whiteSpace=wrap;html=1;fillColor=#fad7ac;strokeColor=#b46504;verticalAlign=top;" parent="1" vertex="1">
          <mxGeometry x="20" y="-502.5" width="129.57" height="60" as="geometry" />
        </mxCell>
        <mxCell id="oZ6fTYHKEGw5SNDz8hmi-31" value="&lt;font style=&quot;&quot;&gt;&lt;i style=&quot;&quot;&gt;&lt;b style=&quot;&quot;&gt;&lt;font color=&quot;#3333ff&quot; style=&quot;font-size: 15px;&quot;&gt;Identity Framework&lt;/font&gt;&lt;/b&gt;&lt;/i&gt;&lt;br&gt;&lt;b&gt;&lt;font style=&quot;font-size: 13px;&quot;&gt;IdentityDbContext&amp;lt;AppUser&amp;gt;&lt;/font&gt;&lt;/b&gt;&lt;br&gt;&lt;br&gt;&lt;/font&gt;" style="shape=document;whiteSpace=wrap;html=1;boundedLbl=1;fillColor=#f9f7ed;strokeColor=#36393d;verticalAlign=top;size=0.21428571428571427;" parent="1" vertex="1">
          <mxGeometry x="1504.57" y="-1070" width="203" height="60" as="geometry" />
        </mxCell>
        <mxCell id="oZ6fTYHKEGw5SNDz8hmi-34" value="&lt;font size=&quot;1&quot; style=&quot;&quot;&gt;&lt;b style=&quot;font-size: 15px;&quot;&gt;Address.cs&lt;/b&gt;&lt;/font&gt;" style="shape=hexagon;perimeter=hexagonPerimeter2;whiteSpace=wrap;html=1;fixedSize=1;fillColor=#f5f5f5;strokeColor=#666666;gradientColor=#b3b3b3;" parent="1" vertex="1">
          <mxGeometry x="1844.5700000000002" y="-230" width="120" height="50" as="geometry" />
        </mxCell>
        <mxCell id="oZ6fTYHKEGw5SNDz8hmi-40" style="rounded=0;orthogonalLoop=1;jettySize=auto;html=1;exitX=0.861;exitY=0.821;exitDx=0;exitDy=0;entryX=-0.006;entryY=0.159;entryDx=0;entryDy=0;entryPerimeter=0;dashed=1;strokeWidth=3;strokeColor=#9673A6;exitPerimeter=0;" parent="1" source="oZ6fTYHKEGw5SNDz8hmi-31" target="cQSAukFgM9H1RLstrKh2-141" edge="1">
          <mxGeometry relative="1" as="geometry">
            <mxPoint x="1603.57" y="-820" as="sourcePoint" />
            <mxPoint x="1808.57" y="-784" as="targetPoint" />
          </mxGeometry>
        </mxCell>
        <mxCell id="EveCIlQHcC4GdwJnfHoP-1" value="&lt;font size=&quot;1&quot; style=&quot;&quot;&gt;&lt;b style=&quot;font-size: 14px;&quot;&gt;View&lt;/b&gt;&lt;/font&gt;" style="ellipse;whiteSpace=wrap;html=1;fillColor=#b0e3e6;strokeColor=#0e8088;" parent="1" vertex="1">
          <mxGeometry x="165.01" y="-1033.75" width="90" height="30" as="geometry" />
        </mxCell>
        <mxCell id="EveCIlQHcC4GdwJnfHoP-2" value="&lt;font size=&quot;1&quot; style=&quot;&quot;&gt;&lt;b style=&quot;font-size: 15px;&quot;&gt;ViewModel&lt;/b&gt;&lt;/font&gt;" style="rounded=0;whiteSpace=wrap;html=1;fillColor=#d5e8d4;strokeColor=#82b366;" parent="1" vertex="1">
          <mxGeometry x="265.01" y="-1038.75" width="90" height="40" as="geometry" />
        </mxCell>
        <mxCell id="EveCIlQHcC4GdwJnfHoP-3" value="&lt;font size=&quot;1&quot; style=&quot;&quot;&gt;&lt;b style=&quot;font-size: 15px;&quot;&gt;Model&lt;/b&gt;&lt;/font&gt;" style="shape=hexagon;perimeter=hexagonPerimeter2;whiteSpace=wrap;html=1;fixedSize=1;fillColor=#f5f5f5;strokeColor=#666666;gradientColor=#b3b3b3;" parent="1" vertex="1">
          <mxGeometry x="475.01" y="-1038.75" width="111.25" height="40" as="geometry" />
        </mxCell>
        <mxCell id="EveCIlQHcC4GdwJnfHoP-4" value="&lt;font style=&quot;font-size: 14px;&quot;&gt;&lt;b&gt;Entity Framework&lt;/b&gt;&lt;/font&gt;" style="shape=parallelogram;perimeter=parallelogramPerimeter;whiteSpace=wrap;html=1;fixedSize=1;fillColor=#cdeb8b;strokeColor=#36393d;" parent="1" vertex="1">
          <mxGeometry x="884.38" y="-1038.75" width="155.63" height="40" as="geometry" />
        </mxCell>
      </root>
    </mxGraphModel>
  </diagram>
</mxfile>
